<svg width="143" height="45" viewBox="0 0 143 45" fill="none" xmlns="http://www.w3.org/2000/svg">
<g clip-path="url(#clip0_158_497)">
<path d="M20.5138 16.458C20.5206 17.8819 20.4173 19.3042 20.2048 20.7121C20.0338 21.934 19.6417 23.1145 19.0475 24.1957C18.5036 25.1606 17.7064 25.9583 16.7421 26.5026C15.538 27.059 14.2276 27.3472 12.9013 27.3472C11.575 27.3472 10.2646 27.059 9.06048 26.5026C8.08761 25.9603 7.28098 25.1626 6.72741 24.1957C6.13302 23.1232 5.7422 21.95 5.5747 20.7352C5.36113 19.3119 5.25785 17.8742 5.26577 16.435V0.618286H-0.00439453V18.442C-0.00439453 22.7976 1.07146 26.2043 3.22318 28.662C5.3749 31.1197 8.5871 32.3501 12.8598 32.3531C17.1202 32.3531 20.3324 31.1227 22.4964 28.662C24.6604 26.2012 25.7363 22.7945 25.724 18.442V0.618286H20.5138V16.458Z" fill="#3E4678"/>
<path d="M58.1516 21.6811L44.2546 0.622925H43.6552H38.9706H37.8824L26.8257 15.263L37.8824 31.7257H38.9706H43.6552H44.2085V9.37562L59.083 31.7257H63.3895V0.622925H58.1516V21.6811Z" fill="#3E4678"/>
<path d="M94.8263 4.48477C93.4582 3.05915 91.8098 1.93272 89.9849 1.17655C88.0292 0.369175 85.9311 -0.0356731 83.8156 -0.0138468C81.7096 -0.0364358 79.6197 0.355492 77.6648 1.13964C75.8288 1.87906 74.1707 3.00041 72.8004 4.4294C71.4048 5.90377 70.3225 7.64605 69.6189 9.55091C68.1127 13.8363 68.1127 18.5076 69.6189 22.793C70.3214 24.6921 71.4004 26.4295 72.7912 27.9006C74.1627 29.3281 75.8205 30.4492 77.6556 31.1904C79.6105 31.9746 81.7004 32.3665 83.8064 32.3439C88.3066 32.3439 91.9768 30.8628 94.817 27.9006C97.6573 24.9385 99.0943 21.0289 99.1282 16.1719C99.1556 13.9293 98.7711 11.7007 97.9939 9.59704C97.2946 7.696 96.217 5.9568 94.8263 4.48477ZM92.7837 20.6844C92.4044 21.9741 91.778 23.1777 90.9393 24.2279C90.1289 25.2229 89.0959 26.0132 87.9239 26.5349C86.6179 27.077 85.218 27.356 83.8041 27.356C82.3903 27.356 80.9903 27.077 79.6843 26.5349C78.5206 26.0079 77.4948 25.2183 76.6873 24.2279C75.8504 23.1765 75.2242 21.9733 74.843 20.6844C74.0191 17.7388 74.0191 14.6235 74.843 11.6779C75.2211 10.3822 75.8475 9.17238 76.6873 8.11596C77.4948 7.12561 78.5206 6.33596 79.6843 5.80897C80.9906 5.23396 82.4074 4.95357 83.8341 4.98769C86.9418 4.98769 89.3087 6.02122 90.9347 8.08827C92.5608 10.1553 93.3908 12.8545 93.4246 16.1858C93.4348 17.7088 93.2188 19.2249 92.7837 20.6844Z" fill="#3E4678"/>
<path d="M137.541 0.622925L131.326 23.5912L123.907 0.798255H120.001L112.809 24.0388L106.413 0.622925H100.954L109.701 31.7257H114.851L121.956 9.50942L128.969 31.7257H133.898L143 0.622925H137.541Z" fill="#3E4678"/>
<path d="M40.884 44.9954C40.1544 44.9954 39.4413 44.7789 38.8347 44.3733C38.2281 43.9677 37.7553 43.3912 37.4761 42.7168C37.1969 42.0423 37.1239 41.3001 37.2662 40.5841C37.4085 39.8681 37.7598 39.2104 38.2757 38.6942C38.7916 38.1779 39.4488 37.8264 40.1643 37.684C40.8799 37.5415 41.6215 37.6146 42.2956 37.894C42.9696 38.1734 43.5457 38.6465 43.951 39.2535C44.3563 39.8605 44.5726 40.5742 44.5726 41.3042C44.5726 42.2832 44.184 43.222 43.4922 43.9143C42.8005 44.6065 41.8623 44.9954 40.884 44.9954Z" fill="#CD6214"/>
</g>
<defs>
<clipPath id="clip0_158_497">
<rect width="143" height="45" fill="white"/>
</clipPath>
</defs>
</svg>
