<svg width="24" height="23" viewBox="0 0 24 23" fill="none" xmlns="http://www.w3.org/2000/svg">
<path d="M8.97672 18.4949C9.04897 18.0542 9.1309 17.5562 9.21735 17.0317C9.09477 17.0317 8.99929 17.0317 8.90382 17.0317C6.75943 17.0317 4.6144 17.0324 2.47001 17.0317C0.98494 17.0311 0.000483842 16.0473 0.000483842 14.5628C-0.000161281 10.5315 -0.000161281 6.50074 0.000483842 2.46937C0.000483842 0.984296 0.984295 0.000483842 2.47001 0.000483842C8.82318 -0.000161281 15.1763 -0.000161281 21.5295 0.000483842C23.0165 0.000483842 23.999 0.98236 23.999 2.46872C23.9997 6.50783 24.0016 10.5469 23.9971 14.5867C23.9965 15.3802 24.0145 16.1782 23.9461 16.9672C23.7171 19.6083 21.5147 21.9314 18.8877 22.3546C17.0136 22.6565 15.3434 22.2069 13.8622 21.0257C13.7719 20.9534 13.6339 20.9083 13.5171 20.9076C11.9856 20.8999 10.4534 20.9044 8.92188 20.9012C8.39546 20.8999 7.95355 20.5779 7.79937 20.1012C7.64583 19.6251 7.80066 19.0916 8.21934 18.8155C8.42642 18.6787 8.68254 18.6161 8.97672 18.4949ZM23.2249 16.2595C23.2262 13.2758 20.7979 10.8424 17.8142 10.8385C14.8293 10.8347 12.3946 13.259 12.3868 16.2421C12.3797 19.2361 14.8157 21.6772 17.8091 21.6759C20.7921 21.6747 23.2229 19.2432 23.2249 16.2595ZM10.8218 13.15C10.8218 9.53217 10.8218 5.93432 10.8218 2.34228C7.98 2.34228 5.1563 2.34228 2.33583 2.34228C2.33583 5.95432 2.33583 9.547 2.33583 13.15C5.16727 13.15 7.98581 13.15 10.8218 13.15ZM1.54878 13.1513C1.54878 13.032 1.54878 12.9365 1.54878 12.8404C1.54878 9.26896 1.54878 5.69756 1.54878 2.12552C1.54878 1.65071 1.652 1.54878 2.13261 1.54878C8.71157 1.54878 15.2899 1.54878 21.8688 1.54878C22.3469 1.54878 22.4507 1.652 22.4507 2.1281C22.4507 5.24017 22.4578 8.35224 22.443 11.4643C22.4411 11.9249 22.4843 12.3294 22.8352 12.6675C22.9817 12.8087 23.0739 13.0068 23.2249 13.2294C23.2249 13.0868 23.2249 13.0145 23.2249 12.9423C23.2249 9.44314 23.2255 5.944 23.2249 2.4455C23.2249 1.41459 22.5811 0.775275 21.5463 0.775275C15.1854 0.775275 8.82382 0.775275 2.46292 0.775275C1.41459 0.775275 0.774631 1.4133 0.774631 2.45969C0.773985 5.93432 0.774631 9.40959 0.774631 12.8842C0.774631 12.97 0.774631 13.0565 0.774631 13.1513C1.04042 13.1513 1.27912 13.1513 1.54878 13.1513ZM11.532 16.2576C11.6914 15.4531 11.8404 14.6996 11.9888 13.9474C8.28708 13.9474 4.5415 13.9474 0.774631 13.9474C0.774631 14.159 0.774631 14.3583 0.774631 14.5583C0.775276 15.6215 1.41072 16.2569 2.47388 16.2576C5.42532 16.2582 8.37675 16.2576 11.3282 16.2576C11.4146 16.2576 11.5017 16.2576 11.532 16.2576ZM16.2401 7.34262C16.2401 5.66208 16.2401 3.99831 16.2401 2.34228C14.6886 2.34228 13.1539 2.34228 11.6262 2.34228C11.6262 4.0196 11.6262 5.67756 11.6262 7.33746C11.8849 7.33746 12.1288 7.33746 12.3791 7.33746C12.4359 6.49235 12.1643 5.57628 13.0023 4.96922C12.6604 4.29506 12.7346 3.74284 13.2042 3.35706C13.61 3.02417 14.199 3.00869 14.6177 3.32093C15.1241 3.69768 15.2086 4.22603 14.8731 4.97438C15.7079 5.58595 15.4279 6.50525 15.4925 7.34198C15.7453 7.34262 15.984 7.34262 16.2401 7.34262ZM21.6618 7.34907C21.6618 5.66724 21.6618 4.00347 21.6618 2.34034C20.1128 2.34034 18.5781 2.34034 17.0433 2.34034C17.0433 4.01573 17.0433 5.67305 17.0433 7.34069C17.2994 7.34069 17.5433 7.34069 17.8059 7.34069C17.8059 7.04587 17.8181 6.76459 17.8033 6.48461C17.771 5.87755 17.9252 5.35113 18.4187 4.96728C18.0794 4.277 18.1562 3.72929 18.6374 3.34738C19.0568 3.01449 19.6535 3.01449 20.0702 3.34738C20.5528 3.73252 20.6296 4.27765 20.2896 4.96728C20.7825 5.35177 20.9366 5.87819 20.905 6.48525C20.8902 6.77104 20.9024 7.05812 20.9024 7.34972C21.1708 7.34907 21.4037 7.34907 21.6618 7.34907ZM12.9978 10.7753C12.6804 10.1025 12.7216 9.63216 13.1261 9.23605C13.4868 8.88317 14.0261 8.78189 14.4628 9.038C15.1744 9.45604 15.2467 10.0663 14.8957 10.7553C15.3163 10.6018 15.7253 10.4592 16.1273 10.2979C16.1892 10.2734 16.2505 10.1625 16.2524 10.0896C16.2647 9.687 16.2582 9.28379 16.2582 8.88124C16.2582 8.6348 16.2582 8.38836 16.2582 8.14644C14.6919 8.14644 13.1578 8.14644 11.6327 8.14644C11.6327 9.82699 11.6327 11.4901 11.6327 13.1468C11.8914 13.1468 12.1301 13.1468 12.3875 13.1468C12.3875 12.8449 12.3997 12.5559 12.3849 12.2681C12.3533 11.6695 12.5139 11.1534 12.9978 10.7753ZM18.1684 10.0863C18.3213 9.24831 18.8735 8.79221 19.547 8.91866C19.8619 8.97801 20.1193 9.13477 20.3025 9.39863C20.5741 9.78893 20.5715 10.2063 20.3883 10.6031C20.8289 10.8727 21.2437 11.1263 21.6618 11.3817C21.6618 10.2979 21.6618 9.22186 21.6618 8.14644C20.1122 8.14644 18.5781 8.14644 17.0517 8.14644C17.0517 8.81157 17.0517 9.45862 17.0517 10.0857C17.4336 10.0863 17.7949 10.0863 18.1684 10.0863ZM12.9565 20.1277C12.7875 19.8722 12.6468 19.6483 12.492 19.4354C12.4584 19.389 12.3733 19.358 12.312 19.3574C11.183 19.3529 10.0547 19.3522 8.92575 19.3561C8.67931 19.3574 8.51674 19.5225 8.51803 19.7419C8.51868 19.9612 8.68125 20.1244 8.92898 20.1251C10.2592 20.1296 11.5888 20.1277 12.9565 20.1277ZM9.75151 18.5665C10.5315 18.5665 11.283 18.5665 12.0294 18.5665C11.8965 18.0529 11.7669 17.5504 11.6346 17.0395C11.105 17.0395 10.5663 17.0395 10.005 17.0395C9.92053 17.5472 9.83731 18.051 9.75151 18.5665ZM14.7073 7.3452C14.7073 6.92845 14.7196 6.53428 14.7041 6.1414C14.6893 5.75562 14.3661 5.44532 13.9861 5.42145C13.5945 5.39629 13.2113 5.67304 13.1784 6.06528C13.1436 6.48654 13.1707 6.91232 13.1707 7.34585C13.6848 7.3452 14.1816 7.3452 14.7073 7.3452ZM20.127 7.34456C20.127 6.93103 20.1367 6.54461 20.1244 6.15882C20.1115 5.76014 19.7883 5.44209 19.3987 5.4208C19.0161 5.39951 18.6374 5.66401 18.6019 6.04721C18.5626 6.47493 18.5929 6.9091 18.5929 7.34456C19.109 7.34456 19.6051 7.34456 20.127 7.34456ZM14.3203 4.24861C14.3151 4.03895 14.1345 3.86799 13.9254 3.87315C13.7158 3.87896 13.5448 4.0583 13.55 4.26797C13.5558 4.47763 13.7351 4.64923 13.9448 4.64343C14.1538 4.63762 14.3254 4.45699 14.3203 4.24861ZM19.7393 4.26797C19.7451 4.05895 19.5735 3.87831 19.3645 3.87315C19.1555 3.86735 18.9755 4.03831 18.9697 4.24797C18.9639 4.45699 19.1348 4.63762 19.3445 4.64343C19.5528 4.64923 19.7335 4.47763 19.7393 4.26797ZM14.3203 10.067C14.3222 9.85795 14.1474 9.68055 13.9377 9.67926C13.728 9.67732 13.5519 9.8515 13.55 10.0618C13.5481 10.2715 13.7222 10.4482 13.9319 10.4495C14.1409 10.4515 14.3183 10.2766 14.3203 10.067ZM19.7393 10.1476C19.7399 9.85666 19.5664 9.68184 19.3587 9.67926C19.1529 9.67668 18.9284 9.86828 18.9774 10.0528C19.0542 10.3444 19.3645 10.216 19.5593 10.3018C19.5974 10.3186 19.7057 10.1779 19.7393 10.1476ZM14.1061 11.2746C13.579 11.114 13.0894 11.5701 13.1913 12.1133C13.4952 11.8353 13.7984 11.5572 14.1061 11.2746Z" fill="#818181"/>
<path d="M23.2251 16.2594C23.2238 19.2425 20.7924 21.6746 17.81 21.6759C14.8166 21.6771 12.3806 19.236 12.3877 16.242C12.3948 13.2589 14.8295 10.8346 17.8151 10.8384C20.7975 10.8423 23.2264 13.2757 23.2251 16.2594ZM15.4837 16.233C15.4837 17.1039 15.4824 17.9741 15.4843 18.8451C15.4849 19.3102 15.7636 19.4766 16.1623 19.245C17.6455 18.3831 19.1267 17.5187 20.6072 16.6523C21.0065 16.4188 21.0065 16.0975 20.6072 15.8633C19.1267 14.9969 17.6455 14.1324 16.1623 13.2706C15.763 13.0383 15.4849 13.2048 15.4843 13.6699C15.4824 14.524 15.4837 15.3788 15.4837 16.233Z" fill="#BAD3EC"/>
<path d="M10.8204 13.1498C7.98445 13.1498 5.16591 13.1498 2.33447 13.1498C2.33447 9.54612 2.33447 5.95408 2.33447 2.34204C5.1543 2.34204 7.97865 2.34204 10.8204 2.34204C10.8204 5.93408 10.8204 9.53257 10.8204 13.1498ZM7.92188 7.23013C8.69925 6.1031 8.69602 5.1638 7.92252 4.41546C7.2445 3.76002 6.20069 3.68841 5.44074 4.24515C5.06205 4.52255 4.81174 4.89027 4.70143 5.34444C4.52595 6.06827 4.75368 6.68694 5.25494 7.22755C4.35758 7.62882 3.72923 8.25652 3.35377 9.13324C3.08604 9.75837 3.08346 10.4183 3.09443 11.0809C3.10088 11.4912 3.21635 11.6112 3.62859 11.6118C5.59492 11.6124 7.56061 11.6118 9.52694 11.6118C9.58307 11.6118 9.64048 11.6157 9.69596 11.6086C9.90756 11.5834 10.0566 11.4621 10.0547 11.2525C10.0495 10.7544 10.0727 10.2454 9.98046 9.76095C9.75273 8.57005 9.02568 7.74881 7.92188 7.23013Z" fill="#818181"/>
<path d="M1.54856 13.15C1.2789 13.15 1.0402 13.15 0.774414 13.15C0.774414 13.0545 0.774414 12.9687 0.774414 12.8829C0.774414 9.40824 0.774414 5.93297 0.774414 2.45834C0.774414 1.41195 1.41373 0.773926 2.4627 0.773926C8.8236 0.773926 15.1852 0.773926 21.5461 0.773926C22.5808 0.773926 23.224 1.41389 23.2247 2.44415C23.2253 5.94329 23.2247 9.44243 23.2247 12.9409C23.2247 13.0132 23.2247 13.0854 23.2247 13.228C23.0737 13.0054 22.9815 12.8074 22.835 12.6661C22.4841 12.3274 22.4408 11.9236 22.4428 11.463C22.4576 8.35089 22.4505 5.23882 22.4505 2.12675C22.4505 1.65065 22.3467 1.54743 21.8686 1.54743C15.2897 1.54743 8.71135 1.54743 2.1324 1.54743C1.65178 1.54743 1.54856 1.64936 1.54856 2.12417C1.54856 5.69556 1.54856 9.26696 1.54856 12.839C1.54856 12.9345 1.54856 13.0306 1.54856 13.15Z" fill="#BAD3EC"/>
<path d="M11.5318 16.2562C11.5015 16.2562 11.4144 16.2562 11.328 16.2562C8.37653 16.2562 5.4251 16.2562 2.47367 16.2562C1.4105 16.2562 0.775059 15.6201 0.774414 14.5569C0.774414 14.3576 0.774414 14.1576 0.774414 13.946C4.54193 13.946 8.28686 13.946 11.9886 13.946C11.8402 14.6982 11.6912 15.4517 11.5318 16.2562Z" fill="#BAD3EC"/>
<path d="M16.2414 7.34174C15.9846 7.34174 15.7459 7.34174 15.4937 7.34174C15.4298 6.50501 15.7091 5.58507 14.8743 4.97414C15.2098 4.2258 15.1253 3.69744 14.6189 3.32069C14.2002 3.0091 13.6112 3.02393 13.2054 3.35682C12.7358 3.74195 12.6609 4.29483 13.0035 4.96898C12.1655 5.57604 12.4371 6.49147 12.3803 7.33722C12.13 7.33722 11.8861 7.33722 11.6274 7.33722C11.6274 5.67732 11.6274 4.01936 11.6274 2.34204C13.1551 2.34204 14.6898 2.34204 16.2414 2.34204C16.2414 3.99807 16.2414 5.6612 16.2414 7.34174Z" fill="#BAD3EC"/>
<path d="M21.6624 7.34803C21.4043 7.34803 21.1714 7.34803 20.9031 7.34803C20.9031 7.05708 20.8908 6.76935 20.9056 6.48356C20.9373 5.87715 20.7837 5.35008 20.2902 4.96559C20.6295 4.27596 20.5528 3.73083 20.0709 3.34569C19.6541 3.01281 19.0574 3.01281 18.638 3.34569C18.1568 3.72825 18.08 4.27531 18.4193 4.96559C17.9258 5.34944 17.7716 5.87586 17.8039 6.48292C17.8187 6.7629 17.8065 7.04418 17.8065 7.339C17.5439 7.339 17.2994 7.339 17.0439 7.339C17.0439 5.67136 17.0439 4.01404 17.0439 2.33865C18.5787 2.33865 20.1134 2.33865 21.6624 2.33865C21.6624 4.00242 21.6624 5.66619 21.6624 7.34803Z" fill="#BAD3EC"/>
<path d="M12.9979 10.7762C12.5147 11.1543 12.3541 11.6704 12.385 12.2691C12.3999 12.5568 12.3876 12.8458 12.3876 13.1477C12.1302 13.1477 11.8915 13.1477 11.6328 13.1477C11.6328 11.491 11.6328 9.82856 11.6328 8.14737C13.1579 8.14737 14.692 8.14737 16.2583 8.14737C16.2583 8.38929 16.2583 8.63573 16.2583 8.88216C16.2583 9.28472 16.2648 9.68792 16.2525 10.0905C16.2506 10.1634 16.1887 10.2743 16.1274 10.2989C15.7255 10.4601 15.3165 10.6027 14.8958 10.7562C15.2468 10.0673 15.1745 9.45697 14.463 9.03893C14.0269 8.78282 13.4869 8.88345 13.1263 9.23698C12.7211 9.63309 12.6798 10.1034 12.9979 10.7762Z" fill="#BAD3EC"/>
<path d="M18.1699 10.0866C17.7964 10.0866 17.4351 10.0866 17.0532 10.0866C17.0532 9.4589 17.0532 8.81185 17.0532 8.14737C18.5789 8.14737 20.1137 8.14737 21.6633 8.14737C21.6633 9.22279 21.6633 10.2982 21.6633 11.3827C21.2452 11.1272 20.8304 10.8737 20.3898 10.604C20.573 10.2072 20.5756 9.78985 20.304 9.39955C20.1208 9.1357 19.8634 8.97893 19.5486 8.91958C18.875 8.79249 18.3228 9.24859 18.1699 10.0866Z" fill="#BAD3EC"/>
<path d="M12.9565 20.1288C11.5888 20.1288 10.2586 20.1307 8.92901 20.1269C8.68128 20.1262 8.51871 19.963 8.51807 19.7437C8.51742 19.5237 8.67935 19.3585 8.92579 19.3579C10.0547 19.3534 11.1831 19.3547 12.312 19.3592C12.3733 19.3592 12.4585 19.3908 12.492 19.4372C12.6469 19.6501 12.7875 19.874 12.9565 20.1288Z" fill="#BAD3EC"/>
<path d="M9.75244 18.567C9.83824 18.0516 9.92146 17.5477 10.006 17.04C10.5672 17.04 11.1053 17.04 11.6356 17.04C11.7678 17.5509 11.8975 18.0535 12.0304 18.567C11.284 18.567 10.5324 18.567 9.75244 18.567Z" fill="#BAD3EC"/>
<path d="M14.7064 7.34681C14.1806 7.34681 13.6845 7.34681 13.1697 7.34681C13.1697 6.91393 13.1426 6.4875 13.1774 6.06624C13.2103 5.67465 13.5936 5.39789 13.9851 5.42241C14.3651 5.44692 14.6883 5.75658 14.7032 6.14236C14.718 6.53589 14.7064 6.93006 14.7064 7.34681Z" fill="#BAD3EC"/>
<path d="M20.1268 7.34585C19.6049 7.34585 19.1088 7.34585 18.5927 7.34585C18.5927 6.91039 18.5624 6.47623 18.6017 6.04851C18.6372 5.66531 19.0152 5.40081 19.3985 5.4221C19.7881 5.44339 20.1113 5.76143 20.1242 6.16012C20.1365 6.5459 20.1268 6.93233 20.1268 7.34585Z" fill="#BAD3EC"/>
<path d="M14.3207 4.24694C14.3258 4.45596 14.1542 4.63659 13.9452 4.64176C13.7362 4.64756 13.5562 4.47596 13.5504 4.2663C13.5452 4.05728 13.7162 3.87729 13.9259 3.87148C14.1349 3.86567 14.3149 4.03728 14.3207 4.24694Z" fill="#BAD3EC"/>
<path d="M19.7382 4.2663C19.7324 4.47532 19.5518 4.64756 19.3427 4.64176C19.1331 4.63595 18.9621 4.45596 18.9679 4.2463C18.9737 4.03663 19.1537 3.86568 19.3627 3.87148C19.5724 3.87729 19.744 4.05792 19.7382 4.2663Z" fill="#BAD3EC"/>
<path d="M14.3199 10.0678C14.318 10.2774 14.1412 10.4516 13.9322 10.4503C13.7226 10.4484 13.5484 10.2723 13.5503 10.0626C13.5522 9.85295 13.7284 9.67877 13.938 9.68006C14.147 9.68135 14.3212 9.85876 14.3199 10.0678Z" fill="#BAD3EC"/>
<path d="M19.7389 10.1484C19.7054 10.1788 19.597 10.3194 19.5589 10.3026C19.3641 10.2168 19.0538 10.3452 18.977 10.0536C18.928 9.86845 19.1525 9.6775 19.3583 9.68008C19.566 9.68266 19.7389 9.85749 19.7389 10.1484Z" fill="#BAD3EC"/>
<path d="M14.1046 11.2741C13.7969 11.556 13.4937 11.834 13.1898 12.1127C13.0879 11.5702 13.5775 11.1134 14.1046 11.2741Z" fill="#BAD3EC"/>
<path d="M15.4824 16.2325C15.4824 15.3778 15.4811 14.5236 15.483 13.6688C15.4836 13.203 15.7617 13.0372 16.161 13.2695C17.6442 14.1314 19.1254 14.9958 20.6059 15.8622C21.0052 16.0958 21.0052 16.417 20.6059 16.6512C19.1254 17.5176 17.6442 18.3821 16.161 19.244C15.7617 19.4762 15.4836 19.3098 15.483 18.844C15.4811 17.9744 15.4824 17.1035 15.4824 16.2325ZM19.7479 16.2571C18.566 15.5681 17.4268 14.9036 16.2765 14.2327C16.2765 15.5977 16.2765 16.926 16.2765 18.2821C17.4345 17.6066 18.5654 16.9467 19.7479 16.2571Z" fill="#BAD3EC"/>
<path d="M7.92342 7.22961C9.02787 7.74828 9.75427 8.56953 9.982 9.76107C10.0743 10.2456 10.051 10.7546 10.0562 11.2526C10.0581 11.4623 9.9091 11.5835 9.6975 11.6087C9.64202 11.6151 9.58461 11.6119 9.52848 11.6119C7.56215 11.6119 5.59646 11.6119 3.63013 11.6119C3.2179 11.6119 3.10242 11.4919 3.09597 11.081C3.085 10.4184 3.08758 9.75913 3.35531 9.13336C3.73077 8.25664 4.35912 7.62894 5.25648 7.22767C4.75522 6.68706 4.52749 6.06839 4.70297 5.34456C4.81264 4.89039 5.06295 4.52267 5.44228 4.24527C6.20223 3.68853 7.24604 3.76014 7.92406 4.41558C8.69756 5.16328 8.70014 6.10322 7.92342 7.22961ZM9.28527 10.8281C9.34978 9.60237 8.92465 8.64242 7.84665 8.06698C6.83768 7.52894 5.83258 7.62571 4.92295 8.31986C4.103 8.94563 3.80496 9.81139 3.88302 10.8275C5.69194 10.8281 7.47699 10.8281 9.28527 10.8281ZM6.58543 6.9664C7.21701 6.96446 7.73827 6.44449 7.74149 5.81292C7.74472 5.17038 7.21894 4.64331 6.5764 4.64525C5.94418 4.64718 5.42421 5.16651 5.42034 5.79808C5.41712 6.44062 5.94354 6.96833 6.58543 6.9664Z" fill="#BAD3EC"/>
<path d="M19.7492 16.2587C18.5667 16.9483 17.4358 17.6083 16.2778 18.2837C16.2778 16.9277 16.2778 15.5994 16.2778 14.2343C17.4274 14.9052 18.5674 15.5697 19.7492 16.2587Z" fill="#818181"/>
<path d="M9.28485 10.8312C7.47658 10.8312 5.69152 10.8312 3.8826 10.8312C3.80454 9.81451 4.10259 8.9494 4.92254 8.32363C5.83216 7.62948 6.8379 7.53271 7.84623 8.07074C8.92423 8.64555 9.34937 9.60549 9.28485 10.8312Z" fill="#BAD3EC"/>
<path d="M6.58698 6.96813C5.94508 6.97006 5.41866 6.44235 5.42189 5.79981C5.42512 5.16824 5.94573 4.64891 6.57795 4.64698C7.22049 4.64504 7.74627 5.17211 7.74304 5.81465C7.73917 6.44622 7.21856 6.96555 6.58698 6.96813Z" fill="#BAD3EC"/>
</svg>
